<svg viewBox="0 0 520 160" xmlns="http://www.w3.org/2000/svg" font-family="'JetBrains Mono',monospace">
  <defs>
    <linearGradient id="bg" x1="0" y1="0" x2="1" y2="1"><stop offset="0%" stop-color="#0C0A18"/><stop offset="100%" stop-color="#14112A"/></linearGradient>
    <linearGradient id="g1" x1="0" y1="0" x2="1" y2="0"><stop offset="0%" stop-color="#C084FC"/><stop offset="100%" stop-color="#F472B6"/></linearGradient>
    <filter id="glow"><feGaussianBlur stdDeviation="3" result="b"/><feMerge><feMergeNode in="b"/><feMergeNode in="SourceGraphic"/></feMerge></filter>
  </defs>
  <rect width="520" height="160" rx="14" fill="url(#bg)"/>
  <rect width="520" height="160" rx="14" fill="none" stroke="#C084FC" stroke-width="1" stroke-opacity="0.25"/>
  <!-- Library/vault icon -->
  <g transform="translate(22,18)" filter="url(#glow)">
    <rect x="10" y="10" width="100" height="100" rx="12" fill="none" stroke="#C084FC" stroke-width="1.5" stroke-opacity="0.35"/>
    <!-- Stack of books/pages -->
    <rect x="22" y="28" width="76" height="12" rx="3" fill="#C084FC" fill-opacity="0.25" stroke="#C084FC" stroke-width="0.8"/>
    <rect x="22" y="45" width="76" height="12" rx="3" fill="#F472B6" fill-opacity="0.2" stroke="#F472B6" stroke-width="0.8"/>
    <rect x="22" y="62" width="76" height="12" rx="3" fill="#C084FC" fill-opacity="0.2" stroke="#C084FC" stroke-width="0.8"/>
    <rect x="22" y="79" width="76" height="12" rx="3" fill="#F472B6" fill-opacity="0.15" stroke="#F472B6" stroke-width="0.8"/>
    <!-- Labels on books -->
    <text x="60" y="38" text-anchor="middle" fill="#C084FC" font-size="7" font-weight="700">CLAUDE</text>
    <text x="60" y="55" text-anchor="middle" fill="#F472B6" font-size="7" font-weight="700">GPT-4o</text>
    <text x="60" y="72" text-anchor="middle" fill="#C084FC" font-size="7" font-weight="700">GEMINI</text>
    <text x="60" y="89" text-anchor="middle" fill="#F472B6" font-size="7" font-weight="700">PERPLEXITY</text>
  </g>
  <text x="156" y="56" fill="url(#g1)" font-size="28" font-weight="800" letter-spacing="-0.5" filter="url(#glow)">PROMPT·VAULT</text>
  <text x="157" y="79" fill="#4A3A60" font-size="12.5" letter-spacing="0.5">Multi-AI Prompt Library — Claude · GPT · Gemini · Perplexity</text>
  <rect x="156" y="89" width="340" height="1.5" rx="1" fill="url(#g1)" opacity="0.3"/>
  <g transform="translate(156,103)">
    <rect x="0"   y="0" width="52" height="22" rx="5" fill="#C084FC" fill-opacity="0.1" stroke="#C084FC" stroke-width="0.7" stroke-opacity="0.5"/>
    <text x="26"  y="15" text-anchor="middle" fill="#C084FC" font-size="10">HTML</text>
    <rect x="58"  y="0" width="70" height="22" rx="5" fill="#F472B6" fill-opacity="0.1" stroke="#F472B6" stroke-width="0.7" stroke-opacity="0.5"/>
    <text x="93"  y="15" text-anchor="middle" fill="#F472B6" font-size="10">5 IAs cibles</text>
    <rect x="134" y="0" width="78" height="22" rx="5" fill="#C084FC" fill-opacity="0.1" stroke="#C084FC" stroke-width="0.7" stroke-opacity="0.5"/>
    <text x="173" y="15" text-anchor="middle" fill="#C084FC" font-size="10">300+ prompts</text>
    <rect x="218" y="0" width="60" height="22" rx="5" fill="#F472B6" fill-opacity="0.1" stroke="#F472B6" stroke-width="0.7" stroke-opacity="0.5"/>
    <text x="248" y="15" text-anchor="middle" fill="#F472B6" font-size="10">Open source</text>
  </g>
  <text x="156" y="149" fill="#3A2A50" font-size="10">Turbo31150  ·  MIT  ·  Claude Code · Gemini CLI · ChatGPT · OpenClaw · n8n · BrowserOS</text>
</svg>
